
            <svg width="441" height="48" viewBox="0 0 2356 256" fill="none" xmlns="http://www.w3.org/2000/svg" xmlns:xlink="http://www.w3.org/1999/xlink" version="1.1">
        
		<g transform="translate(0, 0)">
            
			<svg width="256" height="256" viewBox="0 0 256 256" fill="none" xmlns="http://www.w3.org/2000/svg" id="rust">
<style>
#rust {
    path.rect {fill: #242938}

    @media (prefers-color-scheme: light) {
        path.rect {fill: #F4F2ED}
    }
}
</style>
<path d="M196 0H60C26.8629 0 0 26.8629 0 60V196C0 229.137 26.8629 256 60 256H196C229.137 256 256 229.137 256 196V60C256 26.8629 229.137 0 196 0Z" fill="#242938" class="rect"/>
<path d="M225.613 125.628L217.306 120.479C217.236 119.669 217.157 118.861 217.069 118.056L224.222 111.393C224.949 110.715 225.275 109.712 225.078 108.742C224.886 107.768 224.203 106.965 223.275 106.623L214.134 103.215C213.905 102.424 213.664 101.638 213.419 100.849L219.115 92.9361C219.696 92.1315 219.815 91.0847 219.437 90.1723C219.058 89.2579 218.231 88.603 217.261 88.442L207.628 86.8747C207.253 86.144 206.863 85.4246 206.469 84.7166L210.52 75.8196C210.934 74.9147 210.848 73.8697 210.296 73.0369C209.745 72.2114 208.813 71.7288 207.817 71.7666L198.033 72.1073C197.528 71.4751 197.013 70.8486 196.489 70.2333L198.741 60.7115C198.968 59.7442 198.683 58.7239 197.979 58.0235C197.28 57.3231 196.266 57.0334 195.291 57.2605L185.773 59.5132C185.156 58.9907 184.529 58.474 183.895 57.9686L184.238 48.1818C184.275 47.1917 183.792 46.2509 182.968 45.702C182.141 45.1491 181.094 45.0658 180.185 45.4766L171.31 49.5277C170.593 49.134 169.874 48.744 169.153 48.3673L167.582 38.7319C167.424 37.7551 166.768 36.926 165.852 36.5549C164.938 36.1745 163.885 36.2975 163.09 36.8768L155.18 42.5747C154.399 42.3267 153.616 42.0882 152.833 41.861L149.426 32.7179C149.079 31.7865 148.277 31.1031 147.307 30.9101C146.334 30.7189 145.339 31.0426 144.658 31.7657L137.996 38.9212C137.192 38.8323 136.382 38.7509 135.574 38.6846L130.426 30.3554C129.906 29.513 128.984 29 127.985 29C126.986 29 126.074 29.513 125.563 30.3554L120.415 38.6846C119.605 38.7509 118.795 38.8323 117.993 38.9212L111.332 31.7657C110.657 31.0426 109.654 30.7189 108.682 30.9101C107.708 31.105 106.905 31.7865 106.562 32.7179L103.156 41.861C102.365 42.0882 101.582 42.3286 100.81 42.5747L92.8995 36.8768C92.0953 36.2956 91.0469 36.1726 90.1366 36.5549C89.2226 36.9335 88.566 37.7627 88.4069 38.7319L86.8362 48.3673C86.1096 48.744 85.3904 49.132 84.6789 49.5277L75.8034 45.4766C74.9007 45.064 73.8543 45.1491 73.0216 45.702C72.1965 46.2509 71.7139 47.1917 71.7517 48.1818L72.0924 57.9686C71.4604 58.474 70.8339 58.9907 70.2151 59.5132L60.6962 57.2605C59.7291 57.0353 58.7091 57.3231 58.009 58.0235C57.305 58.7258 57.0193 59.7385 57.2463 60.7115L59.4793 70.2333C58.9589 70.8504 58.4443 71.4751 57.9389 72.1073L48.1551 71.7666C47.1692 71.7383 46.2248 72.2114 45.676 73.0369C45.1234 73.8584 45.0402 74.9109 45.4508 75.8196L49.5007 84.7166C49.107 85.4303 48.7172 86.1496 48.3406 86.8747L38.7082 88.442C37.7297 88.6011 36.9047 89.256 36.5319 90.1723C36.1534 91.0904 36.2763 92.141 36.8536 92.9361L42.5498 100.849C42.3018 101.63 42.0615 102.416 41.8344 103.215L32.6941 106.623C31.7667 106.969 31.0835 107.772 30.8905 108.742C30.6975 109.716 31.0211 110.711 31.7459 111.393L38.8993 118.056C38.8104 118.861 38.7309 119.671 38.6627 120.479L30.355 125.628C29.5129 126.149 29 127.068 29 128.07C29 129.071 29.5129 129.982 30.355 130.494L38.6627 135.642C38.7309 136.453 38.8104 137.261 38.8993 138.065L31.7459 144.729C31.0211 145.404 30.6975 146.408 30.8905 147.378C31.0835 148.354 31.7667 149.154 32.6941 149.499L41.8344 152.906C42.0615 153.698 42.3018 154.483 42.5498 155.273L36.8536 163.185C36.2745 163.992 36.1515 165.039 36.5319 165.949C36.9122 166.867 37.7392 167.522 38.7271 167.679L48.3595 169.246C48.7361 169.977 49.1221 170.696 49.5196 171.405L45.4697 180.283C45.0573 181.185 45.1424 182.232 45.695 183.065C46.2476 183.892 47.1881 184.376 48.1741 184.335L57.9389 183.993C58.448 184.629 58.9609 185.251 59.4832 185.871L57.2501 195.393C57.023 196.358 57.3088 197.362 58.0128 198.062C58.7111 198.768 59.7273 199.05 60.7 198.823L70.2189 196.589C70.8377 197.115 71.4641 197.626 72.0962 198.13L71.7555 207.917C71.7177 208.907 72.2003 209.848 73.0253 210.396C73.8467 210.947 74.8989 211.031 75.8072 210.618L84.6827 206.567C85.3981 206.965 86.1172 207.35 86.8401 207.728L88.4107 217.363C88.5697 218.343 89.2245 219.172 90.1405 219.559C91.0544 219.939 92.1085 219.816 92.9034 219.239L100.814 213.541C101.595 213.789 102.38 214.032 103.179 214.258L106.585 223.401C106.932 224.329 107.734 225.017 108.705 225.206C109.677 225.402 110.673 225.077 111.355 224.35L118.016 217.194C118.82 217.287 119.63 217.365 120.438 217.437L125.586 225.747C126.104 226.586 127.025 227.103 128.008 227.103C128.99 227.103 129.92 226.588 130.449 225.747L135.597 217.437C136.407 217.365 137.215 217.287 138.019 217.194L144.68 224.35C145.356 225.077 146.359 225.402 147.33 225.206C148.304 225.015 149.106 224.329 149.449 223.401L152.856 214.258C153.646 214.032 154.432 213.789 155.221 213.541L163.131 219.239C163.935 219.816 164.984 219.939 165.894 219.559C166.81 219.182 167.465 218.351 167.624 217.363L169.195 207.728C169.922 207.35 170.64 206.959 171.352 206.567L180.228 210.618C181.13 211.031 182.176 210.947 183.009 210.396C183.834 209.844 184.315 208.907 184.279 207.917L183.939 198.13C184.571 197.624 185.197 197.115 185.814 196.589L195.332 198.823C196.3 199.05 197.319 198.768 198.02 198.062C198.724 197.36 199.01 196.35 198.783 195.393L196.549 185.871C197.072 185.251 197.587 184.629 198.09 183.993L207.874 184.335C208.859 184.376 209.804 183.892 210.352 183.065C210.906 182.24 210.991 181.189 210.576 180.283L206.527 171.405C206.922 170.688 207.31 169.967 207.685 169.246L217.317 167.679C218.297 167.522 219.122 166.867 219.493 165.949C219.871 165.035 219.753 163.981 219.171 163.185L213.475 155.273C213.722 154.49 213.961 153.705 214.191 152.906L223.331 149.499C224.261 149.15 224.945 148.35 225.135 147.378C225.331 146.406 225.006 145.41 224.28 144.729L217.126 138.065C217.213 137.261 217.292 136.451 217.362 135.642L225.671 130.494C226.512 129.974 227.025 129.052 227.025 128.07C227.025 127.088 226.514 126.158 225.672 125.628H225.613ZM169.976 194.723C166.797 194.038 164.791 190.899 165.472 187.719C166.151 184.538 169.276 182.513 172.455 183.194C175.635 183.874 177.659 187.018 176.978 190.198C176.297 193.379 173.174 195.404 169.995 194.723H169.976ZM167.156 175.604C164.261 174.983 161.404 176.826 160.798 179.73L157.846 193.511C148.743 197.638 138.543 199.947 127.945 199.947C117.045 199.947 106.751 197.543 97.4774 193.227L94.5251 179.446C93.9044 176.55 91.0621 174.694 88.1666 175.319L75.9983 177.931C73.7464 175.604 71.6458 173.123 69.7155 170.511H128.948C129.619 170.511 130.065 170.39 130.065 169.78V148.768C130.065 148.159 129.619 148.038 128.948 148.038H111.633V134.768H130.348C132.057 134.768 139.489 135.256 141.855 144.762C142.598 147.677 144.239 157.181 145.356 160.228C146.469 163.636 150.995 170.451 155.821 170.451H185.343C185.677 170.451 186.035 170.412 186.412 170.345C184.368 173.127 182.116 175.758 179.713 178.22L167.26 175.55L167.156 175.604ZM85.2145 194.439C82.0352 195.124 78.9126 193.099 78.2314 189.914C77.552 186.734 79.5713 183.591 82.7543 182.91C85.9336 182.23 89.0561 184.256 89.7374 187.435C90.4167 190.615 88.3957 193.757 85.2145 194.439ZM62.6946 103.385C64.0117 106.357 62.6719 109.841 59.7046 111.165C56.7335 112.485 53.2704 111.143 51.9457 108.175C50.621 105.206 51.9683 101.719 54.9357 100.394C57.9068 99.0769 61.3699 100.417 62.6946 103.385ZM55.7873 119.741L68.4665 114.1C71.1726 112.898 72.4027 109.727 71.1916 107.02L68.5801 101.114H78.837V147.303H58.2096C56.4136 140.98 55.4467 134.317 55.4467 127.427C55.4467 124.795 55.5885 122.202 55.861 119.646L55.7873 119.741ZM111.425 115.254V101.625H135.837C137.099 101.625 144.75 103.084 144.75 108.8C144.75 113.55 138.883 115.254 134.058 115.254H111.349H111.425ZM200.179 127.521C200.179 129.331 200.113 131.118 199.981 132.898H192.543C191.799 132.898 191.5 133.386 191.5 134.114V137.521C191.5 145.548 186.978 147.309 183.003 147.744C179.219 148.17 175.037 146.162 174.526 143.844C172.292 131.294 168.583 128.624 162.716 123.968C170.003 119.349 177.572 112.515 177.572 103.334C177.572 93.4718 170.817 87.2627 166.218 84.215C159.746 79.9558 152.592 79.1039 150.662 79.1039H73.8296C84.2568 67.4809 98.4312 59.2274 114.327 56.1986L123.393 65.7014C125.436 67.8406 128.823 67.9352 130.981 65.8757L141.124 56.1834C162.319 60.1398 180.297 73.3529 190.705 91.5825L183.761 107.256C182.563 109.964 183.785 113.144 186.485 114.337L199.846 120.28C200.077 122.646 200.198 125.051 200.198 127.473L200.179 127.521ZM123.347 48.2045C125.694 45.9518 129.422 46.0465 131.654 48.3956C133.888 50.743 133.812 54.4722 131.459 56.7249C129.113 58.9776 125.385 58.8829 123.152 56.5318C120.919 54.1844 120.995 50.4553 123.347 48.2026V48.2045ZM192.231 103.67C193.546 100.697 197.018 99.3533 199.99 100.678C202.961 101.996 204.305 105.486 202.98 108.459C201.665 111.431 198.192 112.775 195.221 111.449C192.25 110.132 190.906 106.641 192.231 103.67Z" fill="#CE422B"/>
</svg>

		</g>
		
		<g transform="translate(300, 0)">
            
			<svg width="256" height="256" viewBox="0 0 256 256" fill="none" xmlns="http://www.w3.org/2000/svg">
<rect width="256" height="256" rx="60" fill="#394AAB"/>
<path d="M134.001 33C169.144 33 199.828 52.0863 216.262 80.4561L216.102 80.183L174.753 103.991C166.607 90.1977 151.672 80.8892 134.54 80.6975L134.001 80.6945C107.875 80.6945 86.6945 101.874 86.6945 127.999C86.6945 136.543 88.9723 144.552 92.9335 151.469C101.088 165.704 116.416 175.306 134.001 175.306C151.693 175.306 167.109 165.582 175.222 151.195L175.025 151.54L216.311 175.458C200.057 203.588 169.794 222.615 135.059 222.994L134.001 223C98.746 223 67.9753 203.796 51.582 175.276C43.5791 161.353 39 145.212 39 127.999C39 75.5334 81.5323 33 134.001 33Z" fill="white"/>
</svg>

		</g>
		
		<g transform="translate(600, 0)">
            
			<svg xmlns="http://www.w3.org/2000/svg" width="256" height="256" fill="none" viewBox="0 0 256 256">
<rect width="256" height="256" fill="#00599C" rx="60"/>
<path fill="#fff" d="M110.759 210.517C65.1254 210.517 28 173.392 28 127.759C28 82.1254 65.1254 45 110.759 45C140.204 45 167.667 60.8458 182.427 86.3533L146.611 107.079C139.224 94.3111 125.485 86.3793 110.759 86.3793C87.9416 86.3793 69.3793 104.942 69.3793 127.759C69.3793 150.575 87.9416 169.138 110.759 169.138C125.486 169.138 139.225 161.206 146.613 148.436L182.429 169.161C167.669 194.671 140.206 210.517 110.759 210.517Z"/>
<path fill="#fff" d="M193.517 123.161H184.321V113.965H175.127V123.161H165.931V132.356H175.127V141.552H184.321V132.356H193.517V123.161Z"/>
<path fill="#fff" d="M228 123.161H218.804V113.965H209.61V123.161H200.414V132.356H209.61V141.552H218.804V132.356H228V123.161Z"/>
</svg>

		</g>
		
		<g transform="translate(900, 0)">
            
			<svg xmlns="http://www.w3.org/2000/svg" width="256" height="256" fill="none" viewBox="0 0 256 256" id="java">
<style>
#java {
    rect {fill: #242938}

    @media (prefers-color-scheme: light) {
        rect {fill: #F4F2ED}
        path.mug {fill: #4E7896}
    }
}
</style>
<rect width="256" height="256" fill="#242938" rx="60"/>
<path fill="#fff" d="M101.634 182.619C101.634 182.619 93.9548 187.293 106.979 188.63C122.707 190.634 131.023 190.299 148.386 186.962C148.386 186.962 153.06 189.971 159.406 192.306C120.331 209.002 70.9089 191.304 101.634 182.619ZM96.6252 160.914C96.6252 160.914 88.2753 167.26 101.299 168.593C118.327 170.262 131.69 170.597 154.732 165.926C154.732 165.926 157.741 169.267 162.747 170.936C115.664 184.961 62.8975 172.269 96.6252 160.917V160.914ZM188.795 198.984C188.795 198.984 194.471 203.658 182.449 207.334C160.073 214.012 88.6104 216.019 68.5735 207.334C61.564 204.325 74.9197 199.982 79.2587 199.319C83.6012 198.317 85.9366 198.317 85.9366 198.317C78.2569 192.973 34.8424 209.337 63.8959 214.046C143.709 227.073 209.499 208.37 188.792 199.018L188.795 198.984ZM105.307 138.203C105.307 138.203 68.9052 146.888 92.2793 149.89C102.298 151.223 122 150.892 140.368 149.555C155.396 148.221 170.458 145.548 170.458 145.548C170.458 145.548 165.113 147.886 161.441 150.222C124.342 159.915 53.2107 155.573 73.5827 145.554C90.9526 137.204 105.307 138.203 105.307 138.203V138.203ZM170.423 174.604C207.83 155.234 190.46 136.534 178.438 138.873C175.429 139.54 174.096 140.207 174.096 140.207C174.096 140.207 175.097 138.203 177.436 137.54C201.145 129.19 219.849 162.586 169.757 175.61C169.757 175.61 170.092 175.275 170.423 174.608V174.604ZM108.979 227.364C145.046 229.703 200.147 226.03 201.484 208.995C201.484 208.995 198.817 215.673 171.764 220.683C141.042 226.359 102.968 225.692 80.5957 222.016C80.5957 222.016 85.2698 226.023 108.982 227.36L108.979 227.364Z" class="mug" />
<path fill="#F58219" d="M147.685 28C147.685 28 168.389 49.0388 127.983 80.7594C95.5891 106.472 120.632 121.168 127.983 137.861C108.948 120.833 95.2609 105.802 104.606 91.7762C118.331 71.0828 156.062 61.0644 147.685 28ZM137 123.842C146.683 134.862 134.333 144.881 134.333 144.881C134.333 144.881 159.044 132.195 147.692 116.494C137.338 101.466 129.324 94.1184 172.738 69.0689C172.738 69.0689 104.278 86.0968 137.007 123.835L137 123.842Z"/>
</svg>

		</g>
		
		<g transform="translate(1200, 0)">
            
			<svg xmlns="http://www.w3.org/2000/svg" width="256" height="256" fill="none" viewBox="0 0 256 256" id="python">
<style>
#python {
    rect {fill: #242938}

    @media (prefers-color-scheme: light) {
        rect {fill: #F4F2ED}
    }
}
</style>
<rect width="256" height="256" fill="#242938" rx="60"/>
<path fill="url(#paint0_linear_2_47)" d="M127.279 29C76.5066 29 79.6772 51.018 79.6772 51.018L79.7338 73.8284H128.185V80.6772H60.4893C60.4893 80.6772 28 76.9926 28 128.222C28 179.452 56.3573 177.636 56.3573 177.636H73.2812V153.863C73.2812 153.863 72.369 125.506 101.186 125.506H149.24C149.24 125.506 176.239 125.942 176.239 99.4123V55.5461C176.239 55.5461 180.338 29 127.279 29ZM100.563 44.339C105.384 44.339 109.28 48.2351 109.28 53.0556C109.28 57.8761 105.384 61.7723 100.563 61.7723C95.7426 61.7723 91.8465 57.8761 91.8465 53.0556C91.8465 48.2351 95.7426 44.339 100.563 44.339Z"/>
<path fill="url(#paint1_linear_2_47)" d="M128.721 227.958C179.493 227.958 176.323 205.941 176.323 205.941L176.266 183.13H127.815V176.281H195.511C195.511 176.281 228 179.966 228 128.736C228 77.5062 199.643 79.323 199.643 79.323H182.719V103.096C182.719 103.096 183.631 131.453 154.814 131.453H106.76C106.76 131.453 79.7607 131.016 79.7607 157.546V201.412C79.7607 201.412 75.6615 227.958 128.721 227.958ZM155.437 212.619C150.616 212.619 146.72 208.723 146.72 203.903C146.72 199.082 150.616 195.186 155.437 195.186C160.257 195.186 164.154 199.082 164.154 203.903C164.154 208.723 160.257 212.619 155.437 212.619Z"/>
<defs>
<linearGradient id="paint0_linear_2_47" x1="47.22" x2="146.333" y1="46.896" y2="145.02" gradientUnits="userSpaceOnUse">
<stop stop-color="#387EB8"/>
<stop offset="1" stop-color="#366994"/>
</linearGradient>
<linearGradient id="paint1_linear_2_47" x1="108.056" x2="214.492" y1="109.905" y2="210.522" gradientUnits="userSpaceOnUse">
<stop stop-color="#FFE052"/>
<stop offset="1" stop-color="#FFC331"/>
</linearGradient>
</defs>
</svg>

		</g>
		
		<g transform="translate(1500, 0)">
            
			<svg xmlns="http://www.w3.org/2000/svg" width="256" height="256" fill="none" viewBox="0 0 256 256" id="postgresql">
<style>
#postgresql {
    rect {fill: #242938}

    @media (prefers-color-scheme: light) {
        rect {fill: #F4F2ED}
    }
}
</style>
<rect width="256" height="256" fill="#242938" rx="60"/>
<path fill="#336791" d="M203.48 148.688C183.16 152.878 181.684 145.995 181.684 145.995C203.15 114.143 212.129 73.7134 204.38 63.8204C183.259 36.8204 146.689 49.5962 146.077 49.9266L145.88 49.9618C141.414 49.0656 136.873 48.5924 132.317 48.5485C123.12 48.4079 116.145 50.9602 110.844 54.9751C110.844 54.9751 45.6078 28.1016 48.6453 88.7743C49.2922 101.684 67.1375 186.509 88.4422 160.845C96.2891 151.409 103.812 143.484 103.812 143.484C107.539 145.966 112.018 147.232 116.708 146.775L117.073 146.466C116.966 147.681 117.016 148.905 117.221 150.108C111.737 156.239 113.354 157.315 102.385 159.572C91.2898 161.857 97.8148 165.928 102.062 166.997C107.223 168.291 119.162 170.119 127.234 158.827L126.91 160.113C129.062 161.836 130.566 171.314 130.313 179.906C130.06 188.499 129.891 194.391 131.579 199.003C133.266 203.616 134.954 213.98 149.368 210.956C161.413 208.376 167.649 201.675 168.528 190.524C169.147 182.592 170.539 183.759 170.638 176.672L171.763 173.311C173.049 162.553 171.973 159.087 179.391 160.704L181.198 160.866C186.662 161.112 193.813 159.987 198.003 158.039C207.038 153.849 212.396 146.845 203.487 148.688H203.48Z"/>
<path stroke="#fff" stroke-linecap="round" stroke-linejoin="round" stroke-width="5.034" d="M146.07 48.5961C143.82 49.2993 182.38 34.4985 204.303 62.504C212.038 72.3969 203.073 112.827 181.606 144.678M128.098 153.784C127.536 173.795 128.239 193.946 130.194 198.784C132.148 203.621 136.346 213.198 150.767 210.118C162.812 207.538 167.199 202.538 169.098 191.506L173.548 156.231L128.098 153.784ZM110.816 53.4688C110.816 53.4688 45.5375 26.7782 48.575 87.4508C49.2219 100.36 67.0672 185.185 88.3719 159.521C96.1484 150.148 103.18 142.815 103.18 142.815L110.816 53.4688Z"/>
<path stroke="#fff" stroke-linecap="round" stroke-linejoin="bevel" stroke-width="5.034" d="M181.613 144.664C181.613 144.664 183.02 151.555 203.41 147.35C212.319 145.508 206.954 152.511 197.926 156.702C190.515 160.147 173.893 161.026 173.619 156.28C172.916 144.01 182.366 147.737 181.684 144.664C181.065 141.894 176.832 139.18 174.048 132.402C171.608 126.495 140.579 81.1438 182.654 87.8727C184.201 87.5563 171.685 47.7946 132.31 47.2181C92.9352 46.6415 94.1797 95.6282 94.1797 95.6282"/>
<path stroke="#fff" stroke-linejoin="round" stroke-width="5.034" d="M117.08 148.869C111.596 155 113.213 156.076 102.245 158.333C91.1492 160.618 97.6742 164.689 101.921 165.758C107.082 167.052 119.021 168.88 127.093 157.58C129.554 154.135 127.079 148.651 123.704 147.259C122.073 146.584 119.893 145.74 117.095 148.876L117.08 148.869Z"/>
<path stroke="#fff" stroke-linecap="round" stroke-linejoin="round" stroke-width="5.034" d="M116.722 148.763C116.159 145.156 117.903 140.874 119.766 135.854C122.565 128.331 129.02 120.807 123.859 96.9219C120.013 79.1329 94.1867 93.2165 94.1867 95.6282C94.1867 98.0399 95.3539 107.863 93.7648 119.288C91.6766 134.209 103.257 146.823 116.588 145.536"/>
<path fill="#fff" stroke="#fff" stroke-width="1.68" d="M110.577 95.2695C110.457 96.0922 112.088 98.293 114.205 98.5883C116.321 98.8836 118.128 97.168 118.248 96.3383C118.367 95.5086 116.736 94.6086 114.62 94.3133C112.503 94.018 110.682 94.4539 110.577 95.2695V95.2695Z"/>
<path fill="#fff" stroke="#fff" stroke-width=".837" d="M175.011 93.5891C175.123 94.4118 173.499 96.6125 171.383 96.9079C169.266 97.2032 167.445 95.4875 167.34 94.6579C167.234 93.8282 168.852 92.9282 170.968 92.6329C173.084 92.3375 174.905 92.7735 175.011 93.5891Z"/>
<path stroke="#fff" stroke-linecap="round" stroke-linejoin="round" stroke-width="5.034" d="M182.577 87.8867C182.928 94.3555 181.184 98.75 180.959 105.634C180.636 115.632 185.727 127.079 178.055 138.54"/>
</svg>

		</g>
		
		<g transform="translate(1800, 0)">
            
			<svg xmlns="http://www.w3.org/2000/svg" width="256" height="256" fill="none" viewBox="0 0 256 256">
<rect width="256" height="256" fill="#2396ED" rx="60"/>
<path d="M141.187 122.123H161.904V103.379H141.187V122.123ZM116.525 122.123H137.241V103.379H116.525V122.123ZM92.3554 122.123H113.072V103.379H92.3554V122.123ZM68.1859 122.123H88.4093V103.379H68.1859V122.123ZM43.5233 122.123H64.2399V103.379H43.5233V122.123ZM68.1859 99.4333H88.4093V80.6896H68.1859V99.4333ZM92.3554 99.4333H113.072V80.6896H92.3554V99.4333ZM116.525 99.4333H137.241V80.6896H116.525V99.4333ZM116.525 76.7436H137.241V58H116.525V76.7436ZM228 113.738C228 113.738 219.121 105.352 200.871 108.312C198.898 94.0075 183.607 85.6222 183.607 85.6222C183.607 85.6222 169.303 102.886 179.661 122.123C176.702 123.603 171.769 125.576 164.37 125.576H28.7257C26.2594 134.948 26.2594 197.097 94.3284 197.097C143.16 197.097 179.661 174.408 196.925 132.974C222.574 134.948 228 113.738 228 113.738Z" fill="#fff" />
</svg>

		</g>
		
		<g transform="translate(2100, 0)">
            
			<svg width="256" height="256" viewBox="0 0 256 256" fill="none" xmlns="http://www.w3.org/2000/svg" id="git">
<style>
#git {
    path.rect {fill: #242938}

    @media (prefers-color-scheme: light) {
        path.rect {fill: #F4F2ED}
    }
}
</style>
<path d="M196 0H60C26.8629 0 0 26.8629 0 60V196C0 229.137 26.8629 256 60 256H196C229.137 256 256 229.137 256 196V60C256 26.8629 229.137 0 196 0Z" fill="#242938" class="rect" />
<path d="M223.295 119.23L136.838 32.7376C135.655 31.5526 134.249 30.6127 132.702 29.9714C131.155 29.33 129.496 29 127.822 29C126.148 29 124.489 29.33 122.942 29.9714C121.395 30.6127 119.989 31.5526 118.806 32.7376L100.86 50.6911L123.633 73.4735C128.93 71.6162 134.995 72.8853 139.214 77.1075C141.223 79.1209 142.626 81.6591 143.262 84.432C143.898 87.2049 143.741 90.1009 142.81 92.789L164.76 114.748C170.07 112.916 176.196 114.097 180.434 118.351C181.844 119.761 182.962 121.435 183.725 123.278C184.487 125.12 184.879 127.094 184.879 129.088C184.878 131.082 184.486 133.056 183.723 134.899C182.959 136.74 181.841 138.414 180.431 139.824C179.022 141.234 177.349 142.352 175.508 143.114C173.666 143.878 171.693 144.27 169.699 144.269C167.706 144.269 165.732 143.876 163.891 143.113C162.05 142.35 160.376 141.231 158.967 139.821C154.512 135.363 153.411 128.801 155.663 123.309L135.193 102.83V156.722C136.679 157.457 138.036 158.428 139.214 159.595C140.623 161.004 141.741 162.677 142.505 164.52C143.267 166.361 143.659 168.335 143.659 170.329C143.659 172.323 143.267 174.297 142.505 176.139C141.741 177.981 140.623 179.655 139.214 181.065C137.806 182.474 136.132 183.593 134.292 184.355C132.45 185.118 130.477 185.511 128.484 185.511C126.491 185.511 124.518 185.118 122.677 184.355C120.836 183.593 119.162 182.474 117.753 181.065C116.343 179.655 115.224 177.982 114.46 176.141C113.696 174.298 113.303 172.323 113.303 170.329C113.303 168.335 113.696 166.361 114.46 164.519C115.224 162.676 116.343 161.003 117.753 159.595C119.22 158.134 120.848 157.025 122.723 156.282V101.889C120.916 101.146 119.22 100.051 117.753 98.5774C115.623 96.4483 114.174 93.7326 113.592 90.7766C113.011 87.8205 113.322 84.7581 114.486 81.9797L92.0228 59.5193L32.739 118.766C31.5537 119.951 30.6134 121.357 29.9718 122.905C29.3302 124.454 29 126.113 29 127.789C29 129.465 29.3302 131.125 29.9718 132.673C30.6134 134.221 31.5537 135.628 32.739 136.812L119.202 223.298C120.385 224.483 121.791 225.423 123.338 226.065C124.885 226.706 126.544 227.036 128.218 227.036C129.892 227.036 131.551 226.706 133.098 226.065C134.645 225.423 136.051 224.483 137.234 223.298L223.295 137.338C224.48 136.154 225.421 134.747 226.062 133.199C226.704 131.651 227.034 129.992 227.034 128.316C227.034 126.64 226.704 124.979 226.062 123.431C225.421 121.883 224.48 120.476 223.295 119.292" fill="#F1502F"/>
</svg>

		</g>
		</svg>